<?xml version="1.0" standalone="no"?>
<!DOCTYPE svg PUBLIC "-//W3C//DTD SVG 20010904//EN"
 "http://www.w3.org/TR/2001/REC-SVG-20010904/DTD/svg10.dtd">
<svg version="1.0" xmlns="http://www.w3.org/2000/svg"
 width="1088.000000pt" height="960.000000pt" viewBox="0 0 1088.000000 960.000000"
 preserveAspectRatio="xMidYMid meet">

<g transform="translate(0.000000,960.000000) scale(0.100000,-0.100000)"
fill="#000000" stroke="none">
<path d="M0 4800 l0 -4800 5440 0 5440 0 0 4800 0 4800 -5440 0 -5440 0 0
-4800z m5738 2556 c22 -8 62 -18 89 -22 26 -4 64 -15 83 -25 19 -10 64 -31
100 -47 144 -66 181 -83 320 -150 80 -38 168 -79 195 -92 28 -12 77 -35 110
-50 33 -15 96 -45 140 -65 44 -20 107 -50 141 -66 33 -16 64 -29 67 -29 4 0
64 -27 135 -61 240 -115 358 -169 366 -169 4 0 57 -24 119 -54 61 -29 153 -72
202 -95 205 -96 242 -123 308 -223 54 -83 72 -148 72 -259 -1 -152 -47 -259
-152 -356 -39 -36 -172 -113 -195 -113 -4 0 -52 -20 -105 -46 -109 -50 -137
-63 -203 -92 -25 -11 -75 -34 -112 -51 -37 -17 -69 -31 -72 -31 -4 0 -43 -18
-89 -41 -45 -22 -158 -74 -252 -116 -93 -42 -174 -79 -180 -83 -5 -4 -68 -33
-140 -65 -127 -56 -172 -76 -385 -177 -106 -51 -175 -83 -240 -112 -19 -9 -42
-20 -50 -25 -33 -21 -129 -62 -205 -87 -73 -25 -92 -28 -215 -26 -147 1 -126
-4 -345 87 -22 9 -99 45 -172 81 -72 35 -135 64 -139 64 -4 0 -39 15 -78 34
-39 19 -107 51 -151 71 -96 45 -185 86 -325 153 -226 106 -287 135 -350 164
-106 49 -190 88 -275 128 -44 21 -114 53 -155 70 -196 84 -405 195 -446 236
-70 73 -134 236 -134 341 0 64 32 184 59 221 11 17 21 34 21 39 0 19 93 105
133 125 23 10 53 26 67 33 14 8 48 24 75 36 28 12 124 57 215 101 91 44 179
86 195 93 35 15 175 81 328 154 59 28 110 51 113 51 5 0 45 18 219 100 44 21
137 63 206 93 69 30 157 71 195 91 38 20 130 64 204 98 74 33 140 64 145 68 6
4 28 13 50 20 22 7 50 20 62 28 79 50 340 80 431 48z m-2231 -2617 c79 -38
149 -69 155 -69 6 0 27 -9 47 -19 66 -35 245 -119 321 -150 41 -18 89 -38 105
-45 17 -8 55 -25 85 -39 30 -13 87 -39 125 -57 39 -18 93 -43 120 -55 47 -22
94 -44 337 -159 54 -25 101 -46 104 -46 4 0 59 -25 123 -56 64 -31 135 -65
159 -75 23 -10 61 -28 85 -38 110 -49 185 -84 219 -102 52 -28 175 -28 221 -1
17 11 43 23 57 27 14 4 37 16 52 26 14 11 31 19 38 19 12 0 70 25 230 102 58
27 123 58 145 68 72 32 168 77 268 124 54 25 102 46 108 46 6 0 27 9 47 20 20
10 51 25 67 33 17 7 39 18 50 24 43 21 133 62 205 93 41 17 82 35 90 41 8 5
26 14 40 19 14 6 48 21 75 35 28 13 77 36 110 50 81 36 129 57 196 89 31 14
59 26 63 26 4 0 37 14 74 31 37 17 81 37 97 45 17 7 56 24 87 38 48 22 71 26
151 26 87 0 96 -2 129 -27 57 -45 91 -108 96 -181 4 -55 1 -67 -23 -105 -32
-50 -90 -104 -119 -113 -12 -3 -61 -25 -111 -49 -105 -50 -153 -72 -255 -115
-41 -18 -133 -60 -205 -95 -71 -34 -164 -77 -205 -94 -41 -17 -93 -40 -115
-51 -102 -48 -172 -80 -178 -80 -4 0 -49 -20 -101 -45 -53 -25 -98 -45 -100
-45 -3 0 -53 -23 -113 -51 -59 -28 -137 -65 -173 -81 -212 -99 -299 -140 -332
-158 -20 -11 -42 -20 -47 -20 -6 0 -48 -18 -93 -39 -151 -72 -198 -90 -255
-101 -71 -13 -217 -13 -307 0 -72 11 -78 13 -243 91 -57 27 -105 49 -108 49
-6 0 -70 29 -240 110 -262 124 -319 151 -475 222 -36 16 -83 38 -105 48 -22
10 -69 32 -105 48 -36 17 -109 51 -163 76 -54 25 -102 46 -107 46 -8 0 -127
54 -280 127 -86 41 -129 60 -210 93 -41 17 -82 35 -90 40 -8 6 -22 13 -30 16
-8 4 -43 19 -77 35 -34 16 -65 29 -70 29 -21 0 -86 67 -109 113 -50 97 -25
194 70 271 46 39 80 46 180 39 61 -4 88 -14 213 -74z m-57 -1160 c52 -23 154
-70 225 -105 72 -35 134 -64 139 -64 5 0 52 -21 105 -46 100 -47 129 -61 246
-115 39 -17 88 -40 111 -50 22 -11 43 -19 47 -19 4 0 51 -21 104 -46 265 -125
342 -161 443 -205 41 -18 121 -54 177 -81 56 -26 105 -48 108 -48 3 0 47 -20
98 -44 288 -137 284 -136 348 -136 34 0 73 6 87 14 50 26 217 104 358 166 76
33 162 72 189 85 89 42 164 75 170 75 3 0 40 16 83 36 89 42 188 87 252 116
25 11 86 40 135 63 50 24 124 58 165 75 41 17 93 39 115 49 83 38 163 75 245
113 187 87 280 128 292 128 6 0 22 9 37 19 15 11 40 23 56 27 16 4 40 13 54
20 16 9 61 14 120 14 85 0 97 -2 127 -25 19 -14 48 -47 66 -73 29 -42 33 -55
33 -112 -1 -73 -26 -134 -70 -168 -33 -26 -239 -127 -390 -192 -66 -28 -127
-55 -135 -59 -9 -5 -88 -41 -175 -80 -183 -82 -197 -88 -285 -129 -132 -61
-227 -105 -285 -132 -33 -16 -114 -52 -180 -80 -147 -62 -151 -64 -300 -135
-125 -60 -189 -89 -240 -111 -16 -7 -70 -31 -120 -55 -189 -88 -209 -93 -405
-93 -193 0 -195 0 -382 88 -43 20 -79 36 -82 36 -6 0 -111 48 -271 125 -49 23
-124 57 -165 75 -79 34 -122 53 -263 119 -48 23 -89 41 -92 41 -2 0 -91 42
-197 94 -106 51 -204 97 -218 101 -14 4 -45 18 -70 31 -49 25 -95 46 -210 93
-41 18 -93 40 -115 50 -22 10 -60 27 -85 39 -25 11 -83 38 -130 60 -47 22
-103 47 -124 56 -97 40 -176 143 -176 230 0 81 92 199 163 209 84 13 171 -2
267 -44z"/>
<path d="M5513 6895 c-12 -9 -40 -22 -61 -29 -22 -8 -76 -33 -121 -55 -45 -23
-86 -41 -91 -41 -5 0 -58 -23 -117 -51 -136 -65 -248 -117 -338 -159 -38 -18
-124 -59 -190 -90 -154 -74 -253 -120 -259 -120 -5 0 -153 -69 -313 -146 -50
-24 -94 -44 -97 -44 -3 0 -61 -26 -129 -59 -67 -32 -157 -75 -200 -95 -57 -26
-77 -41 -75 -53 3 -15 88 -69 148 -94 32 -13 87 -38 230 -106 63 -30 149 -71
190 -90 41 -19 98 -46 126 -59 28 -13 54 -24 58 -24 7 0 58 -23 201 -90 44
-21 100 -47 125 -58 25 -11 75 -34 112 -51 37 -17 69 -31 72 -31 3 0 51 -22
108 -49 57 -27 135 -63 173 -81 39 -18 133 -63 210 -100 272 -131 254 -124
330 -125 47 0 80 5 100 17 17 9 64 32 105 51 97 44 200 92 275 127 33 15 98
46 145 67 47 22 114 52 150 67 36 15 83 36 105 46 22 10 72 33 110 51 39 17
102 46 140 64 39 18 97 45 130 60 33 15 110 52 171 81 62 30 114 54 117 54 3
0 61 26 129 59 68 32 177 84 243 115 200 94 203 97 123 137 -29 14 -93 47
-143 71 -49 25 -124 60 -165 78 -41 17 -113 50 -160 72 -47 22 -107 50 -135
63 -27 13 -84 39 -125 58 -41 19 -115 53 -165 76 -49 23 -97 46 -105 51 -14
10 -27 16 -130 61 -25 11 -63 29 -85 39 -22 10 -76 35 -120 55 -44 21 -111 52
-150 70 -96 45 -148 68 -235 104 -41 18 -93 40 -115 51 -130 62 -155 70 -217
70 -41 0 -71 -5 -85 -15z"/>
</g>
</svg>
